<svg width="20" height="22" viewBox="0 0 20 22" fill="none" xmlns="http://www.w3.org/2000/svg">
<path d="M5.01093 7.66666C5.00368 7.77683 5 7.88798 5 7.99999C5 9.63581 5.78555 11.0882 7 12.0004V13.9943C7 14.5896 6.60536 15.1128 6.03296 15.2763L4.80762 15.6264C1.96193 16.4395 0 19.0404 0 22H20C20 19.0404 18.0381 16.4395 15.1924 15.6264L13.967 15.2763C13.3946 15.1128 13 14.5896 13 13.9943V12.0004C14.2144 11.0882 15 9.63581 15 7.99999C15 7.88798 14.9963 7.77683 14.9891 7.66666H15V4.99999C15 2.23857 12.7614 -7.62939e-06 10 -7.62939e-06C7.23858 -7.62939e-06 5 2.23857 5 4.99999V7.66666H5.01093Z" fill="black"/>
</svg>
