<?xml version="1.0" encoding="utf-8"?>
<!-- Uploaded to: SVG Repo, www.svgrepo.com, Generator: SVG Repo Mixer Tools -->
<svg fill="#000000" width="800px" height="800px" viewBox="0 0 32 32" version="1.1" xmlns="http://www.w3.org/2000/svg">
<title>hands-holding-gift</title>
<path d="M30.822 14.245l-0.023-0.974c-0.016-1.579-0.082-2.873-0.207-4.074-0.059-0.623-0.147-1.18-0.267-1.725l0.017 0.093c-0.071-0.439-0.238-0.83-0.478-1.164l0.006 0.008c-0.091-0.112-0.211-0.197-0.35-0.242l-0.005-0.001c-0.304-0.126-0.657-0.199-1.026-0.199-0.531 0-1.026 0.151-1.446 0.412l0.012-0.007c-0.698 0.541-1.166 1.35-1.251 2.269l-0.001 0.013-0.509 5.008c-0.292-0.155-0.639-0.246-1.007-0.246-0.861 0-1.605 0.498-1.961 1.222l-0.006 0.013-1.555 2.693-2.953 2.819c-0.051 0.048-0.095 0.104-0.13 0.165l-0.002 0.003-0.832 1.44-0.43-0.248c-0.016-0.009-0.035-0.009-0.052-0.017-0.092-0.045-0.201-0.072-0.316-0.072s-0.223 0.026-0.32 0.074l0.004-0.002c-0.017 0.008-0.036 0.008-0.053 0.017l-0.43 0.248-0.831-1.44c-0.037-0.064-0.081-0.12-0.131-0.168l-0-0-2.953-2.819-1.555-2.693c-0.304-0.565-0.813-0.986-1.425-1.168l-0.017-0.004c-0.16-0.044-0.344-0.069-0.534-0.069-0.366 0-0.71 0.094-1.009 0.259l0.011-0.005-0.508-4.997c-0.083-0.937-0.552-1.75-1.246-2.288l-0.007-0.005c-0.408-0.254-0.904-0.405-1.435-0.405-0.37 0-0.722 0.073-1.044 0.206l0.018-0.007c-0.144 0.046-0.265 0.131-0.354 0.242l-0.001 0.001c-0.24 0.337-0.41 0.74-0.479 1.176l-0.002 0.016c-0.101 0.445-0.186 0.99-0.237 1.545l-0.004 0.053c-0.124 1.197-0.189 2.491-0.207 4.072-0.004 0.328-0.014 0.656-0.023 0.984-0.019 0.314-0.030 0.682-0.030 1.052 0 0.701 0.039 1.392 0.116 2.072l-0.008-0.083c0.358 2.481 1.583 4.625 3.354 6.156l0.013 0.011c1.048 0.83 1.971 1.736 2.791 2.73l0.025 0.031-0.597 0.345c-0.226 0.132-0.375 0.374-0.375 0.65 0 0.138 0.037 0.268 0.102 0.379l-0.002-0.004 1.605 2.781c0.099 0.17 0.259 0.296 0.45 0.348l0.005 0.001c0.057 0.016 0.123 0.025 0.191 0.025 0.001 0 0.002 0 0.004 0h-0c0.001 0 0.001 0 0.002 0 0.137 0 0.266-0.037 0.377-0.102l-0.004 0.002 6.753-3.9 6.757 3.9c0.108 0.062 0.237 0.099 0.375 0.1h0c0.276-0.001 0.518-0.15 0.648-0.371l0.002-0.004 1.605-2.781c0.062-0.108 0.099-0.237 0.099-0.375 0-0.069-0.009-0.135-0.026-0.198l0.001 0.005c-0.053-0.196-0.179-0.357-0.346-0.455l-0.004-0.002-0.598-0.345c0.853-1.032 1.784-1.944 2.802-2.751l0.038-0.029c1.77-1.54 2.987-3.677 3.337-6.094l0.006-0.054c0.068-0.595 0.107-1.285 0.107-1.983 0-0.376-0.011-0.748-0.033-1.118l0.002 0.051zM5.674 22.307c-1.493-1.312-2.521-3.121-2.827-5.166l-0.006-0.047c-0.061-0.537-0.095-1.159-0.095-1.789 0-0.353 0.011-0.704 0.032-1.051l-0.002 0.048c0.011-0.338 0.021-0.676 0.024-1.014 0.017-1.534 0.080-2.784 0.199-3.936 0.050-0.554 0.128-1.052 0.236-1.539l-0.015 0.080c0.026-0.116 0.058-0.258 0.097-0.373 0.1-0.031 0.214-0.049 0.333-0.049 0.206 0 0.4 0.054 0.567 0.149l-0.006-0.003c0.334 0.297 0.555 0.714 0.594 1.183l0 0.007 0.714 7.020c0.012 0.111 0.046 0.213 0.099 0.302l-0.002-0.004 3.218 5.573c0.131 0.231 0.375 0.385 0.655 0.385 0.414 0 0.75-0.336 0.75-0.75 0-0.142-0.040-0.275-0.108-0.388l0.002 0.003-2.815-4.876c-0.316-0.549-0.129-0.918 0.152-1.080 0.276-0.165 0.693-0.143 1.012 0.408l1.608 2.786c0.037 0.064 0.081 0.119 0.132 0.168l0 0 2.953 2.82 0.778 1.346-5.112 2.951c-0.938-1.187-1.979-2.227-3.128-3.134l-0.040-0.030zM22.904 28.975l-6.477-3.738c-0.011-0.006-0.024-0.006-0.035-0.011-0.066-0.035-0.143-0.061-0.225-0.074l-0.004-0.001-0.054-0.004c-0.018-0.002-0.039-0.002-0.061-0.002-0.058 0-0.115 0.007-0.17 0.020l0.005-0.001c-0.024 0.006-0.046 0.015-0.069 0.022-0.051 0.012-0.096 0.027-0.139 0.045l0.005-0.002-6.487 3.746-0.855-1.48 7.71-4.451 7.71 4.451zM29.258 17.095c-0.309 2.082-1.328 3.882-2.8 5.185l-0.009 0.008c-1.198 0.943-2.246 1.989-3.162 3.144l-0.030 0.039-5.111-2.95 0.778-1.346 2.953-2.82c0.051-0.048 0.095-0.104 0.131-0.165l0.002-0.003 1.609-2.786c0.11-0.221 0.298-0.39 0.527-0.473l0.007-0.002c0.047-0.012 0.1-0.019 0.156-0.019 0.118 0 0.229 0.032 0.324 0.087l-0.003-0.002c0.144 0.082 0.251 0.216 0.296 0.375l0.001 0.004c0.010 0.052 0.016 0.113 0.016 0.174 0 0.196-0.060 0.378-0.163 0.529l0.002-0.003-2.816 4.876c-0.063 0.108-0.1 0.237-0.1 0.375 0 0.277 0.149 0.518 0.372 0.649l0.004 0.002c0.107 0.060 0.234 0.096 0.37 0.096 0.277 0 0.519-0.147 0.653-0.368l0.002-0.003 3.219-5.573c0.051-0.086 0.085-0.187 0.095-0.296l0-0.003 0.713-7.027c0.042-0.473 0.263-0.887 0.594-1.18l0.002-0.002c0.163-0.091 0.357-0.144 0.563-0.144 0.117 0 0.231 0.017 0.338 0.049l-0.008-0.002c0.035 0.106 0.072 0.244 0.101 0.384l0.005 0.026c0.089 0.396 0.164 0.882 0.209 1.377l0.003 0.047c0.121 1.152 0.184 2.402 0.199 3.935 0.004 0.334 0.014 0.669 0.025 1.003 0.019 0.299 0.029 0.648 0.029 1 0 0.635-0.035 1.263-0.102 1.88l0.007-0.076zM10.54 8.318v2.684c0.002 1.518 1.232 2.748 2.75 2.75h5.419c1.518-0.002 2.748-1.232 2.75-2.75v-2.684c0.469-0.308 0.777-0.829 0.785-1.422v-0.738c-0.006-0.781-0.528-1.439-1.241-1.65l-0.012-0.003c0.148-0.297 0.235-0.648 0.235-1.019 0-0.192-0.023-0.379-0.067-0.558l0.003 0.016c-0.217-0.842-0.892-1.482-1.738-1.644l-0.014-0.002c-0.101-0.015-0.217-0.023-0.336-0.023-0.893 0-1.677 0.472-2.114 1.18l-0.006 0.011-0.954 1.373-0.954-1.373c-0.44-0.719-1.221-1.192-2.113-1.192-0.121 0-0.24 0.009-0.356 0.026l0.013-0.002c-0.86 0.165-1.536 0.805-1.75 1.632l-0.003 0.015c-0.041 0.163-0.065 0.35-0.065 0.543 0 0.37 0.087 0.72 0.241 1.030l-0.006-0.013c-0.725 0.215-1.245 0.873-1.252 1.652v0.737c0.008 0.594 0.315 1.114 0.777 1.419l0.007 0.004zM11.256 6.896v-0.736c0.002-0.14 0.115-0.253 0.255-0.255h3.74v1.247h-3.739c-0.14-0.002-0.253-0.116-0.255-0.256v-0zM20.49 5.904c0.14 0.003 0.252 0.115 0.254 0.255v0.737c-0.002 0.14-0.114 0.253-0.254 0.256h-3.74v-1.247zM12.040 11.003v-2.352h3.21v3.602h-1.96c-0.69-0.001-1.249-0.56-1.25-1.25v-0zM19.959 11.003c-0.001 0.69-0.56 1.249-1.25 1.25h-1.959v-3.602h3.209zM18.186 3.322c0.171-0.329 0.51-0.549 0.9-0.549 0.020 0 0.040 0.001 0.060 0.002l-0.003-0c0.277 0.058 0.494 0.265 0.563 0.533l0.001 0.005c0.005 0.042 0.008 0.090 0.008 0.138 0 0.389-0.187 0.735-0.476 0.951l-0.003 0.002h-1.802zM12.292 3.313c0.071-0.273 0.289-0.481 0.562-0.537l0.005-0.001c0.019-0.001 0.042-0.002 0.064-0.002 0.388 0 0.723 0.221 0.888 0.544l0.003 0.006 0.752 1.082h-1.802c-0.292-0.219-0.48-0.565-0.48-0.954 0-0.048 0.003-0.096 0.008-0.143l-0.001 0.006z"></path>
</svg>