<svg width="18" height="16" viewBox="0 0 18 16" fill="none" xmlns="http://www.w3.org/2000/svg">
<path d="M16.2071 1.2072C15.8166 0.816675 15.1834 0.816676 14.7929 1.2072L2.06497 13.9351C1.67445 14.3256 1.67445 14.9588 2.06497 15.3493C2.4555 15.7399 3.08866 15.7399 3.47919 15.3493L16.2071 2.62141C16.5976 2.23089 16.5976 1.59772 16.2071 1.2072Z" fill="white"/>
<path d="M9 3.00009C9.80604 3.00009 10.5873 3.05896 11.3307 3.16938L10.2881 4.21201C9.88389 4.07462 9.45065 4.00009 9 4.00009C6.79086 4.00009 5 5.79095 5 8.00009C5 8.45074 5.07452 8.88399 5.21192 9.28817L2.84963 11.6505C1.09589 10.7381 0 9.4402 0 8.00009C0 5.23867 4.02944 3.00009 9 3.00009Z" fill="white"/>
<path d="M9 12.0001C8.73688 12.0001 8.47969 11.9747 8.23075 11.9262L7.25119 12.9058C7.81689 12.9677 8.40163 13.0001 9 13.0001C13.9706 13.0001 18 10.7615 18 8.00009C18 6.67934 17.0782 5.47819 15.5726 4.58436L12.9261 7.23084C12.9746 7.47978 13 7.73697 13 8.00009C13 10.2092 11.2091 12.0001 9 12.0001Z" fill="white"/>
</svg>
