<svg width="20" height="20" viewBox="0 0 20 20" fill="none" xmlns="http://www.w3.org/2000/svg">
<path d="M19.3 8.80701V18.6298C19.3 18.9992 19.0024 19.299 18.6357 19.299H10.6648C10.2981 19.299 10.0005 18.9992 10.0005 18.6298V16.8005C10.0369 14.5581 10.2723 12.4102 10.7667 11.433C11.0631 10.8452 11.5516 10.5254 12.1128 10.3543C13.173 10.0332 15.0333 10.2528 15.8229 10.215C15.8229 10.215 18.2081 10.3106 18.2081 8.94982C18.2081 7.85459 17.142 7.94074 17.142 7.94074C15.967 7.97143 15.072 7.89117 14.4921 7.66103C13.5209 7.27629 13.4881 6.57053 13.4846 6.33448C13.4366 3.60822 9.44642 3.2813 5.93073 3.95756C2.08701 4.694 5.9729 10.2445 5.9729 17.6538V18.6428C5.96587 19.0063 5.67417 19.3002 5.311 19.3002H1.36419C0.997513 19.3002 0.699951 19.0004 0.699951 18.631V1.642C0.699951 1.27259 0.997513 0.972822 1.36419 0.972822H5.07435C5.44104 0.972822 5.7386 1.27259 5.7386 1.642C5.7386 2.19079 6.3513 2.49646 6.79413 2.17663C8.12847 1.21358 9.84121 0.700195 11.7578 0.700195C16.0514 0.700195 19.2976 3.22111 19.2976 8.80701H19.3ZM12.1725 6.81365C12.1725 6.02291 11.5364 5.38206 10.7515 5.38206C9.96656 5.38206 9.33044 6.02291 9.33044 6.81365C9.33044 7.60438 9.96656 8.24523 10.7515 8.24523C11.5364 8.24523 12.1725 7.60438 12.1725 6.81365Z" fill="#662482"/>
</svg>
