<svg width="30" height="30" viewBox="0 0 30 30" fill="none" xmlns="http://www.w3.org/2000/svg">
<path d="M23.9848 12.6647C24.641 10.9245 25 9.03867 25 7.06897C25 6.40868 24.9597 5.75782 24.8813 5.1187C24.2422 5.04035 23.5913 5 22.931 5C20.9614 5 19.0755 5.35902 17.3354 6.01519L23.9848 12.6647Z" fill="white"/>
<path fill-rule="evenodd" clip-rule="evenodd" d="M15.9731 6.60354C12.2649 8.41653 9.36842 11.6336 7.97613 15.5622L14.4379 22.024C18.3665 20.6317 21.5835 17.7352 23.3965 14.0269L15.9731 6.60354ZM17.4139 13.9655C17.4139 15.1082 16.4876 16.0345 15.3449 16.0345C14.2023 16.0345 13.276 15.1082 13.276 13.9655C13.276 12.8229 14.2023 11.8966 15.3449 11.8966C16.4876 11.8966 17.4139 12.8229 17.4139 13.9655Z" fill="white"/>
<path d="M7.5566 19.2808C7.82592 19.0114 7.82592 18.5748 7.5566 18.3054C7.28727 18.0361 6.85061 18.0361 6.58129 18.3054L5.20199 19.6848C4.93267 19.9541 4.93267 20.3907 5.20199 20.6601C5.47132 20.9294 5.90798 20.9294 6.1773 20.6601L7.5566 19.2808Z" fill="white"/>
<path d="M9.62554 20.3744C9.89487 20.6437 9.89487 21.0804 9.62554 21.3497L8.24625 22.729C7.97692 22.9984 7.54026 22.9984 7.27094 22.729C7.00161 22.4597 7.00161 22.023 7.27094 21.7537L8.65023 20.3744C8.91956 20.1051 9.35622 20.1051 9.62554 20.3744Z" fill="white"/>
<path d="M11.6945 22.4434C11.9638 22.7127 11.9638 23.1494 11.6945 23.4187L10.3152 24.798C10.0459 25.0673 9.60921 25.0673 9.33988 24.798C9.07056 24.5287 9.07056 24.092 9.33988 23.8227L10.7192 22.4434C10.9885 22.174 11.4252 22.174 11.6945 22.4434Z" fill="white"/>
<path d="M8.20101 11.8966C7.69955 12.7187 7.26498 13.5861 6.90487 14.4912L5.48759 13.0739C5.05313 12.6394 5.36083 11.8966 5.97524 11.8966H8.20101Z" fill="white"/>
<path d="M16.9259 24.5123L15.5087 23.095C16.4137 22.7349 17.2811 22.3004 18.1032 21.7989V24.0247C18.1032 24.6391 17.3604 24.9468 16.9259 24.5123Z" fill="white"/>
</svg>
