<svg width="40" height="40" viewBox="0 0 40 40" fill="none" xmlns="http://www.w3.org/2000/svg">
<path d="M37.9696 15.3293C39.282 11.8491 40 8.07735 40 4.13793C40 2.81736 39.9193 1.51563 39.7626 0.237409C38.4844 0.0806903 37.1826 0 35.8621 0C31.9227 0 28.151 0.718038 24.6708 2.03038L37.9696 15.3293Z" fill="white"/>
<path fill-rule="evenodd" clip-rule="evenodd" d="M21.9463 3.20708C14.5298 6.83306 8.73684 13.2671 5.95226 21.1244L18.8758 34.0481C26.733 31.2635 33.167 25.4705 36.7929 18.0539L21.9463 3.20708ZM24.8277 17.931C24.8277 20.2164 22.9751 22.069 20.6899 22.069C18.4046 22.069 16.552 20.2164 16.552 17.931C16.552 15.6457 18.4046 13.7931 20.6899 13.7931C22.9751 13.7931 24.8277 15.6457 24.8277 17.931Z" fill="white"/>
<path d="M5.1132 28.5615C5.65185 28.0229 5.65185 27.1495 5.1132 26.6109C4.57455 26.0722 3.70123 26.0722 3.16258 26.6109L0.403986 29.3695C-0.134662 29.9082 -0.134662 30.7815 0.403986 31.3201C0.942635 31.8588 1.81596 31.8588 2.35461 31.3201L5.1132 28.5615Z" fill="white"/>
<path d="M9.25109 30.7488C9.78974 31.2875 9.78974 32.1608 9.25109 32.6995L6.49249 35.4581C5.95385 35.9967 5.08052 35.9967 4.54187 35.4581C4.00323 34.9194 4.00323 34.0461 4.54187 33.5074L7.30047 30.7488C7.83912 30.2102 8.71244 30.2102 9.25109 30.7488Z" fill="white"/>
<path d="M13.389 34.8867C13.9276 35.4254 13.9276 36.2987 13.389 36.8374L10.6304 39.596C10.0917 40.1347 9.21841 40.1347 8.67976 39.596C8.14111 39.0574 8.14111 38.184 8.67976 37.6454L11.4384 34.8867C11.977 34.3481 12.8503 34.3481 13.389 34.8867Z" fill="white"/>
<path d="M6.40202 13.7931C5.3991 15.4373 4.52996 17.1721 3.80973 18.9823L0.975173 16.1477C0.106265 15.2788 0.72166 13.7931 1.95048 13.7931H6.40202Z" fill="white"/>
<path d="M23.8519 39.0247L21.0173 36.1901C22.8275 35.4699 24.5623 34.6007 26.2065 33.5978V38.0494C26.2065 39.2782 24.7208 39.8936 23.8519 39.0247Z" fill="white"/>
</svg>
