<svg width="40" height="40" viewBox="0 0 40 40" fill="none" xmlns="http://www.w3.org/2000/svg">
<path d="M33.1047 23.4442C33.1082 24.0065 32.9373 24.556 32.6156 25.0172C32.294 25.4784 31.8373 25.8286 31.3084 26.0196L22.4169 29.3052L19.1416 38.2037C18.9476 38.7306 18.5967 39.1853 18.1362 39.5066C17.6756 39.8278 17.1277 40 16.5662 40C16.0047 40 15.4567 39.8278 14.9962 39.5066C14.5356 39.1853 14.1847 38.7306 13.9908 38.2037L10.6948 29.3052L1.79635 26.0299C1.26942 25.836 0.814671 25.485 0.49345 25.0245C0.172229 24.564 0 24.016 0 23.4545C0 22.893 0.172229 22.345 0.49345 21.8845C0.814671 21.424 1.26942 21.0731 1.79635 20.8791L10.6948 17.5831L13.9701 8.68469C14.164 8.15776 14.515 7.70301 14.9755 7.38179C15.436 7.06056 15.984 6.88834 16.5455 6.88834C17.107 6.88834 17.655 7.06056 18.1155 7.38179C18.576 7.70301 18.9269 8.15776 19.1209 8.68469L22.4169 17.5831L31.3153 20.8584C31.8446 21.0511 32.301 21.4034 32.6215 21.8665C32.942 22.3297 33.1108 22.881 33.1047 23.4442ZM23.4512 6.89534H26.2093V9.65348C26.2093 10.0192 26.3546 10.37 26.6132 10.6286C26.8719 10.8873 27.2226 11.0325 27.5884 11.0325C27.9541 11.0325 28.3049 10.8873 28.5635 10.6286C28.8222 10.37 28.9675 10.0192 28.9675 9.65348V6.89534H31.7256C32.0913 6.89534 32.4421 6.75005 32.7007 6.49142C32.9594 6.2328 33.1047 5.88203 33.1047 5.51627C33.1047 5.15052 32.9594 4.79975 32.7007 4.54113C32.4421 4.2825 32.0913 4.13721 31.7256 4.13721H28.9675V1.37907C28.9675 1.01332 28.8222 0.662545 28.5635 0.40392C28.3049 0.145294 27.9541 0 27.5884 0C27.2226 0 26.8719 0.145294 26.6132 0.40392C26.3546 0.662545 26.2093 1.01332 26.2093 1.37907V4.13721H23.4512C23.0854 4.13721 22.7347 4.2825 22.476 4.54113C22.2174 4.79975 22.0721 5.15052 22.0721 5.51627C22.0721 5.88203 22.2174 6.2328 22.476 6.49142C22.7347 6.75005 23.0854 6.89534 23.4512 6.89534ZM38.6209 12.4116H37.2419V11.0325C37.2419 10.6668 37.0966 10.316 36.8379 10.0574C36.5793 9.79878 36.2285 9.65348 35.8628 9.65348C35.497 9.65348 35.1463 9.79878 34.8876 10.0574C34.629 10.316 34.4837 10.6668 34.4837 11.0325V12.4116H33.1047C32.7389 12.4116 32.3881 12.5569 32.1295 12.8155C31.8709 13.0742 31.7256 13.4249 31.7256 13.7907C31.7256 14.1564 31.8709 14.5072 32.1295 14.7658C32.3881 15.0245 32.7389 15.1698 33.1047 15.1698H34.4837V16.5488C34.4837 16.9146 34.629 17.2653 34.8876 17.524C35.1463 17.7826 35.497 17.9279 35.8628 17.9279C36.2285 17.9279 36.5793 17.7826 36.8379 17.524C37.0966 17.2653 37.2419 16.9146 37.2419 16.5488V15.1698H38.6209C38.9867 15.1698 39.3375 15.0245 39.5961 14.7658C39.8547 14.5072 40 14.1564 40 13.7907C40 13.4249 39.8547 13.0742 39.5961 12.8155C39.3375 12.5569 38.9867 12.4116 38.6209 12.4116Z" fill="white"/>
</svg>
