<svg width="32" height="32" viewBox="0 0 32 32" fill="none" xmlns="http://www.w3.org/2000/svg">
<path fill-rule="evenodd" clip-rule="evenodd" d="M13.6058 31.6337L0.366318 18.3941C-0.122105 17.9057 -0.122107 17.1138 0.366317 16.6253L16.6253 0.36632C16.8598 0.131769 17.1779 0 17.5096 0H26.479C26.5367 0 26.5941 0.0039917 26.6506 0.0118223C26.7651 0.00398367 26.8807 0 26.9973 0C29.7602 0 32 2.23982 32 5.00278C32 5.11957 31.996 5.23542 31.9881 5.35021C31.9959 5.40644 31.9998 5.46343 31.9998 5.52083V14.4903C31.9998 14.822 31.868 15.1401 31.6335 15.3747L15.3746 31.6337C14.8861 32.1221 14.0942 32.1221 13.6058 31.6337ZM16.9916 9.18403C16.9916 8.49329 16.4316 7.93334 15.7409 7.93334C15.0502 7.93334 14.4902 8.49329 14.4902 9.18403V23.334C14.4902 24.0248 15.0502 24.5847 15.7409 24.5847C16.4316 24.5847 16.9916 24.0248 16.9916 23.334V9.18403ZM12.2033 14.4903C13.1802 15.4671 13.1802 17.0509 12.2033 18.0278C11.2265 19.0046 9.64268 19.0046 8.66584 18.0278C7.68899 17.0509 7.68899 15.4671 8.66584 14.4903C9.64268 13.5134 11.2265 13.5134 12.2033 14.4903ZM22.8158 18.0278C23.7927 17.0509 23.7927 15.4671 22.8158 14.4903C21.839 13.5134 20.2552 13.5134 19.2784 14.4903C18.3015 15.4671 18.3015 17.0509 19.2784 18.0278C20.2552 19.0046 21.839 19.0046 22.8158 18.0278Z" fill="white"/>
</svg>
