<svg width="22" height="15" viewBox="0 0 22 15" fill="none" xmlns="http://www.w3.org/2000/svg">
<path fill-rule="evenodd" clip-rule="evenodd" d="M0 2.5C0 1.39543 0.895431 0.5 2 0.5H20C21.1046 0.5 22 1.39543 22 2.5V12.5C22 13.6046 21.1046 14.5 20 14.5H11.5L11.4944 14.5H2C0.89543 14.5 0 13.6046 0 12.5V2.5ZM17.7324 13.5H20C20.5523 13.5 21 13.0523 21 12.5V2.5C21 1.94772 20.5523 1.5 20 1.5H17.7324C17.9026 1.79417 18 2.13571 18 2.5V12.5C18 12.8643 17.9026 13.2058 17.7324 13.5ZM7 7.49999C7 8.60456 6.10457 9.49999 5 9.49999C3.89543 9.49999 3 8.60456 3 7.49999C3 6.39542 3.89543 5.49999 5 5.49999C6.10457 5.49999 7 6.39542 7 7.49999Z" fill="white"/>
</svg>
